solid STL generated by MeshLab
  facet normal -9.967509e-01 -1.742884e-02  7.863784e-02
    outer loop
      vertex   6.210314e-03  9.252404e-01  8.307415e-02
      vertex  -1.453397e-05  9.190220e-01  2.794708e-03
      vertex  -6.176234e-06  9.117666e-01  1.292600e-03
    endloop
  endfacet
  facet normal -2.749152e-02  2.026276e-01 -9.788699e-01
    outer loop
      vertex  -6.176234e-06  9.117666e-01  1.292600e-03
      vertex  -1.453397e-05  9.190220e-01  2.794708e-03
      vertex   8.187708e-02  9.231983e-01  1.359291e-03
    endloop
  endfacet
  facet normal -9.364052e-01  3.506644e-01  1.340632e-02
    outer loop
      vertex  -6.176234e-06  9.117666e-01  1.292600e-03
      vertex   1.458945e-03  9.126524e-01  8.045932e-02
      vertex   6.210314e-03  9.252404e-01  8.307415e-02
    endloop
  endfacet
  facet normal -5.207374e-02  9.959636e-01 -7.310867e-02
    outer loop
      vertex   6.210314e-03  9.252404e-01  8.307415e-02
      vertex   8.187708e-02  9.231983e-01  1.359291e-03
      vertex  -1.453397e-05  9.190220e-01  2.794708e-03
    endloop
  endfacet
  facet normal  4.618435e-03 -3.756812e-01 -9.267374e-01
    outer loop
      vertex   1.950383e-01  9.177415e-01  4.135340e-03
      vertex   8.187708e-02  9.231983e-01  1.359291e-03
      vertex   1.928070e-01  9.264827e-01  5.807095e-04
    endloop
  endfacet
  facet normal  1.829451e-02 -1.252535e-01 -9.919561e-01
    outer loop
      vertex  -6.176234e-06  9.117666e-01  1.292600e-03
      vertex   8.187708e-02  9.231983e-01  1.359291e-03
      vertex   1.950383e-01  9.177415e-01  4.135340e-03
    endloop
  endfacet
  facet normal  3.613073e-02  9.976165e-01 -5.878666e-02
    outer loop
      vertex   9.695807e-01  9.320341e-01  8.397998e-02
      vertex   1.153365e+00  9.253241e-01  8.306698e-02
      vertex   1.080909e+00  9.230605e-01  1.200030e-04
    endloop
  endfacet
  facet normal  2.997408e-02  9.973076e-01 -6.692684e-02
    outer loop
      vertex   1.080909e+00  9.230605e-01  1.200030e-04
      vertex   9.643928e-01  9.267012e-01  2.189607e-03
      vertex   9.695807e-01  9.320341e-01  8.397998e-02
    endloop
  endfacet
  facet normal  5.239420e-02  9.959586e-01 -7.294799e-02
    outer loop
      vertex   1.161436e+00  9.190620e-01  3.367381e-03
      vertex   1.080909e+00  9.230605e-01  1.200030e-04
      vertex   1.153365e+00  9.253241e-01  8.306698e-02
    endloop
  endfacet
  facet normal  4.385462e-02  7.407653e-02 -9.962878e-01
    outer loop
      vertex   1.080909e+00  9.230605e-01  1.200030e-04
      vertex   1.161436e+00  9.190620e-01  3.367381e-03
      vertex   1.161409e+00  9.118231e-01  2.827947e-03
    endloop
  endfacet
  facet normal  8.993067e-01  4.335872e-01  5.700656e-02
    outer loop
      vertex   1.159238e+00  9.131017e-01  8.337694e-02
      vertex   1.161436e+00  9.190620e-01  3.367381e-03
      vertex   1.153365e+00  9.253241e-01  8.306698e-02
    endloop
  endfacet
  facet normal -1.419990e-03 -2.438727e-01 -9.698063e-01
    outer loop
      vertex   1.161409e+00  9.118231e-01  2.827947e-03
      vertex   8.422079e-01  9.206829e-01  1.067385e-03
      vertex   1.080909e+00  9.230605e-01  1.200030e-04
    endloop
  endfacet
  facet normal  9.996179e-01 -5.784041e-03  2.703159e-02
    outer loop
      vertex   1.159238e+00  9.131017e-01  8.337694e-02
      vertex   1.161409e+00  9.118231e-01  2.827947e-03
      vertex   1.161436e+00  9.190620e-01  3.367381e-03
    endloop
  endfacet
  facet normal -2.828746e-02 -9.809842e-01  1.920151e-01
    outer loop
      vertex   8.422079e-01  9.206829e-01  1.067385e-03
      vertex   1.161409e+00  9.118231e-01  2.827947e-03
      vertex   1.012629e+00  9.171907e-01  8.332118e-03
    endloop
  endfacet
  facet normal -3.549895e-02 -9.992585e-01  1.490558e-02
    outer loop
      vertex   1.012629e+00  9.171907e-01  8.332118e-03
      vertex   1.161409e+00  9.118231e-01  2.827947e-03
      vertex   1.159238e+00  9.131017e-01  8.337694e-02
    endloop
  endfacet
  facet normal -2.999626e-02  9.973207e-01 -6.672087e-02
    outer loop
      vertex   1.918749e-01  9.320341e-01  8.398013e-02
      vertex   1.928070e-01  9.264827e-01  5.807095e-04
      vertex   8.187708e-02  9.231983e-01  1.359291e-03
    endloop
  endfacet
  facet normal -3.621917e-02  9.976320e-01 -5.846926e-02
    outer loop
      vertex   8.187708e-02  9.231983e-01  1.359291e-03
      vertex   6.210314e-03  9.252404e-01  8.307415e-02
      vertex   1.918749e-01  9.320341e-01  8.398013e-02
    endloop
  endfacet
  facet normal  3.046245e-02 -9.994795e-01  1.061927e-02
    outer loop
      vertex   1.950383e-01  9.177415e-01  4.135340e-03
      vertex   1.458945e-03  9.126524e-01  8.045932e-02
      vertex  -6.176234e-06  9.117666e-01  1.292600e-03
    endloop
  endfacet
  facet normal -6.526073e-03  9.978271e-01 -6.556280e-02
    outer loop
      vertex   1.918749e-01  9.320341e-01  8.398013e-02
      vertex   3.700796e-01  9.332104e-01  8.414523e-02
      vertex   3.727120e-01  9.282269e-01  8.037511e-03
    endloop
  endfacet
  facet normal -6.917804e-03  9.977630e-01 -6.649239e-02
    outer loop
      vertex   3.727120e-01  9.282269e-01  8.037511e-03
      vertex   1.928070e-01  9.264827e-01  5.807095e-04
      vertex   1.918749e-01  9.320341e-01  8.398013e-02
    endloop
  endfacet
  facet normal  5.996415e-03  2.823078e-02  9.995834e-01
    outer loop
      vertex   9.695807e-01  9.320341e-01  8.397998e-02
      vertex   1.159238e+00  9.131017e-01  8.337694e-02
      vertex   1.153365e+00  9.253241e-01  8.306698e-02
    endloop
  endfacet
  facet normal -1.996047e-02 -9.996811e-01 -1.547387e-02
    outer loop
      vertex   1.159238e+00  9.131017e-01  8.337694e-02
      vertex   9.696490e-01  9.168750e-01  8.416688e-02
      vertex   1.012629e+00  9.171907e-01  8.332118e-03
    endloop
  endfacet
  facet normal -5.218500e-03 -9.435600e-01 -3.311607e-01
    outer loop
      vertex   1.012629e+00  9.171907e-01  8.332118e-03
      vertex   7.887780e-01  9.185320e-01  8.037779e-03
      vertex   8.422079e-01  9.206829e-01  1.067385e-03
    endloop
  endfacet
  facet normal  4.412031e-03  1.234844e-02  9.999141e-01
    outer loop
      vertex   1.159238e+00  9.131017e-01  8.337694e-02
      vertex   9.695807e-01  9.320341e-01  8.397998e-02
      vertex   9.696490e-01  9.168750e-01  8.416688e-02
    endloop
  endfacet
  facet normal  9.569436e-08 -9.555417e-01 -2.948561e-01
    outer loop
      vertex   7.887780e-01  9.185320e-01  8.037779e-03
      vertex   3.726836e-01  9.185320e-01  8.037644e-03
      vertex   8.422079e-01  9.206829e-01  1.067385e-03
    endloop
  endfacet
  facet normal -5.981927e-03 -9.999535e-01 -7.552630e-03
    outer loop
      vertex   7.887780e-01  9.185320e-01  8.037779e-03
      vertex   1.012629e+00  9.171907e-01  8.332118e-03
      vertex   9.696490e-01  9.168750e-01  8.416688e-02
    endloop
  endfacet
  facet normal  8.874991e-04  1.233266e-02  9.999235e-01
    outer loop
      vertex   7.914860e-01  9.174900e-01  8.431743e-02
      vertex   9.696490e-01  9.168750e-01  8.416688e-02
      vertex   9.695807e-01  9.320341e-01  8.397998e-02
    endloop
  endfacet
  facet normal  4.433005e-09 -9.999067e-01 -1.365910e-02
    outer loop
      vertex   3.726836e-01  9.185320e-01  8.037644e-03
      vertex   7.887780e-01  9.185320e-01  8.037779e-03
      vertex   7.914860e-01  9.174900e-01  8.431743e-02
    endloop
  endfacet
  facet normal -3.463000e-03 -9.999024e-01 -1.353610e-02
    outer loop
      vertex   9.696490e-01  9.168750e-01  8.416688e-02
      vertex   7.914860e-01  9.174900e-01  8.431743e-02
      vertex   7.887780e-01  9.185320e-01  8.037779e-03
    endloop
  endfacet
  facet normal  6.526403e-03  9.978271e-01 -6.556347e-02
    outer loop
      vertex   7.887400e-01  9.282270e-01  8.037779e-03
      vertex   7.914550e-01  9.332100e-01  8.414569e-02
      vertex   9.695807e-01  9.320341e-01  8.397998e-02
    endloop
  endfacet
  facet normal  1.062237e-06  9.978630e-01 -6.533940e-02
    outer loop
      vertex   3.727120e-01  9.282269e-01  8.037511e-03
      vertex   3.700796e-01  9.332104e-01  8.414523e-02
      vertex   7.914550e-01  9.332100e-01  8.414569e-02
    endloop
  endfacet
  facet normal  6.487605e-03  9.978334e-01 -6.547140e-02
    outer loop
      vertex   9.695807e-01  9.320341e-01  8.397998e-02
      vertex   9.643928e-01  9.267012e-01  2.189607e-03
      vertex   7.887400e-01  9.282270e-01  8.037779e-03
    endloop
  endfacet
  facet normal -1.008931e-07  9.978635e-01 -6.533304e-02
    outer loop
      vertex   7.914550e-01  9.332100e-01  8.414569e-02
      vertex   7.887400e-01  9.282270e-01  8.037779e-03
      vertex   3.727120e-01  9.282269e-01  8.037511e-03
    endloop
  endfacet
  facet normal  2.387228e-08  9.676114e-01 -2.524443e-01
    outer loop
      vertex   9.643928e-01  9.267012e-01  2.189607e-03
      vertex   3.727120e-01  9.282269e-01  8.037511e-03
      vertex   7.887400e-01  9.282270e-01  8.037779e-03
    endloop
  endfacet
  facet normal -6.925163e-03  3.174146e-01 -9.482616e-01
    outer loop
      vertex   9.643928e-01  9.267012e-01  2.189607e-03
      vertex   1.080909e+00  9.230605e-01  1.200030e-04
      vertex   8.422079e-01  9.206829e-01  1.067385e-03
    endloop
  endfacet
  facet normal  2.094137e-04  9.725831e-01 -2.325558e-01
    outer loop
      vertex   9.643928e-01  9.267012e-01  2.189607e-03
      vertex   1.928070e-01  9.264827e-01  5.807095e-04
      vertex   3.727120e-01  9.282269e-01  8.037511e-03
    endloop
  endfacet
  facet normal  2.022967e-03  1.434671e-01 -9.896531e-01
    outer loop
      vertex   9.643928e-01  9.267012e-01  2.189607e-03
      vertex   8.422079e-01  9.206829e-01  1.067385e-03
      vertex   1.928070e-01  9.264827e-01  5.807095e-04
    endloop
  endfacet
  facet normal -5.685995e-03  2.207055e-02  9.997402e-01
    outer loop
      vertex   1.918749e-01  9.320341e-01  8.398013e-02
      vertex   6.210314e-03  9.252404e-01  8.307415e-02
      vertex   1.478309e-01  9.165903e-01  8.407057e-02
    endloop
  endfacet
  facet normal -1.889973e-02 -1.965027e-01  9.803211e-01
    outer loop
      vertex   1.458945e-03  9.126524e-01  8.045932e-02
      vertex   1.478309e-01  9.165903e-01  8.407057e-02
      vertex   6.210314e-03  9.252404e-01  8.307415e-02
    endloop
  endfacet
  facet normal  2.685710e-02 -9.996382e-01  1.464512e-03
    outer loop
      vertex   1.478309e-01  9.165903e-01  8.407057e-02
      vertex   1.458945e-03  9.126524e-01  8.045932e-02
      vertex   1.950383e-01  9.177415e-01  4.135340e-03
    endloop
  endfacet
  facet normal  4.528133e-03 -9.999834e-01 -3.556407e-03
    outer loop
      vertex   8.422079e-01  9.206829e-01  1.067385e-03
      vertex   3.726836e-01  9.185320e-01  8.037644e-03
      vertex   1.950383e-01  9.177415e-01  4.135340e-03
    endloop
  endfacet
  facet normal -2.675449e-03 -3.772817e-01 -9.260947e-01
    outer loop
      vertex   8.422079e-01  9.206829e-01  1.067385e-03
      vertex   1.950383e-01  9.177415e-01  4.135340e-03
      vertex   1.928070e-01  9.264827e-01  5.807095e-04
    endloop
  endfacet
  facet normal  1.002405e-03  1.092599e-02  9.999398e-01
    outer loop
      vertex   9.695807e-01  9.320341e-01  8.397998e-02
      vertex   7.914550e-01  9.332100e-01  8.414569e-02
      vertex   7.914860e-01  9.174900e-01  8.431743e-02
    endloop
  endfacet
  facet normal -1.103056e-06  1.092401e-02  9.999403e-01
    outer loop
      vertex   3.700796e-01  9.332104e-01  8.414523e-02
      vertex   7.914860e-01  9.174900e-01  8.431743e-02
      vertex   7.914550e-01  9.332100e-01  8.414569e-02
    endloop
  endfacet
  facet normal -2.898673e-06  1.087589e-02  9.999408e-01
    outer loop
      vertex   7.914860e-01  9.174900e-01  8.431743e-02
      vertex   3.700796e-01  9.332104e-01  8.414523e-02
      vertex   3.699749e-01  9.174900e-01  8.431621e-02
    endloop
  endfacet
  facet normal  3.959616e-08 -9.999067e-01 -1.365929e-02
    outer loop
      vertex   7.914860e-01  9.174900e-01  8.431743e-02
      vertex   3.699749e-01  9.174900e-01  8.431621e-02
      vertex   3.726836e-01  9.185320e-01  8.037644e-03
    endloop
  endfacet
  facet normal -9.835862e-04  8.661096e-03  9.999621e-01
    outer loop
      vertex   3.700796e-01  9.332104e-01  8.414523e-02
      vertex   1.918749e-01  9.320341e-01  8.398013e-02
      vertex   1.478309e-01  9.165903e-01  8.407057e-02
    endloop
  endfacet
  facet normal -1.149776e-03  1.088352e-02  9.999402e-01
    outer loop
      vertex   1.478309e-01  9.165903e-01  8.407057e-02
      vertex   3.699749e-01  9.174900e-01  8.431621e-02
      vertex   3.700796e-01  9.332104e-01  8.414523e-02
    endloop
  endfacet
  facet normal  4.064762e-03 -9.999004e-01 -1.351486e-02
    outer loop
      vertex   3.726836e-01  9.185320e-01  8.037644e-03
      vertex   3.699749e-01  9.174900e-01  8.431621e-02
      vertex   1.478309e-01  9.165903e-01  8.407057e-02
    endloop
  endfacet
  facet normal  4.705030e-03 -9.999214e-01 -1.162193e-02
    outer loop
      vertex   1.478309e-01  9.165903e-01  8.407057e-02
      vertex   1.950383e-01  9.177415e-01  4.135340e-03
      vertex   3.726836e-01  9.185320e-01  8.037644e-03
    endloop
  endfacet
endsolid vcg
